<svg width="29" xmlns="http://www.w3.org/2000/svg" height="24" id="screenshot-327781a8-0975-8022-8006-bd2f372feb96" viewBox="0 0 29 24" xmlns:xlink="http://www.w3.org/1999/xlink" fill="none" version="1.1"><g id="shape-327781a8-0975-8022-8006-bd2f372feb96"><g class="frame-container-wrapper"><g class="frame-container-blur"><g class="frame-container-shadows"><g fill="none"><g class="fills" id="fills-327781a8-0975-8022-8006-bd2f372feb96"><rect rx="0" ry="0" x="0" y="0" width="24" height="24" transform="matrix(1.000000, 0.000000, 0.000000, 1.000000, 0.000000, 0.000000)" class="frame-background"/></g><g class="frame-children"><g id="shape-327781a8-0975-8022-8006-bd2f372feb97" style="display: none;"><g class="fills" id="fills-327781a8-0975-8022-8006-bd2f372feb97"><rect width="24" height="24" x="0" stroke-linejoin="round" transform="matrix(1.000000, 0.000000, 0.000000, 1.000000, 0.000000, 0.000000)" style="fill: none;" ry="0" fill="none" stroke-linecap="round" rx="0" y="0"/></g><g fill="none" stroke-linejoin="round" stroke-linecap="round" id="strokes-1f29c591-7ef8-8018-8006-d8e328810bf2-327781a8-0975-8022-8006-bd2f372feb97" class="strokes"><g class="stroke-shape"><rect rx="0" ry="0" x="0" y="0" transform="matrix(1.000000, 0.000000, 0.000000, 1.000000, 0.000000, 0.000000)" width="24" height="24" style="fill: none; stroke-width: 2; stroke: rgb(0, 0, 0); stroke-opacity: 1;"/></g></g></g><g id="shape-327781a8-0975-8022-8006-bd2f372feb98"><g class="fills" id="fills-327781a8-0975-8022-8006-bd2f372feb98"><path d="M2,12C2,12,5,5,12,5C19,5,22,12,22,12C22,12,19,19,12,19C5,19,2,12,2,12Z" fill="none" stroke-linecap="round" stroke-linejoin="round" style="fill: none;"/></g><g fill="none" stroke-linecap="round" stroke-linejoin="round" id="strokes-1f29c591-7ef8-8018-8006-d8e32881f4c8-327781a8-0975-8022-8006-bd2f372feb98" class="strokes"><g class="stroke-shape"><path d="M2,12C2,12,5,5,12,5C19,5,22,12,22,12C22,12,19,19,12,19C5,19,2,12,2,12Z" style="fill: none; stroke-width: 2; stroke: rgb(0, 0, 0); stroke-opacity: 1;"/></g></g></g><g id="shape-327781a8-0975-8022-8006-bd2f372feb99"><g class="fills" id="fills-327781a8-0975-8022-8006-bd2f372feb99"><ellipse cy="12" stroke-linejoin="round" transform="matrix(1.000000, 0.000000, 0.000000, 1.000000, 0.000000, 0.000000)" style="fill: none;" ry="3" fill="none" stroke-linecap="round" rx="3" cx="12"/></g><g fill="none" stroke-linecap="round" stroke-linejoin="round" id="strokes-1f29c591-7ef8-8018-8006-d8e328825ec6-327781a8-0975-8022-8006-bd2f372feb99" class="strokes"><g class="stroke-shape"><ellipse cx="12" cy="12" rx="3" ry="3" transform="matrix(1.000000, 0.000000, 0.000000, 1.000000, 0.000000, 0.000000)" style="fill: none; stroke-width: 2; stroke: rgb(0, 0, 0); stroke-opacity: 1;"/></g></g></g></g></g></g></g></g></g></svg>