<svg width="24" xmlns="http://www.w3.org/2000/svg" height="24" id="screenshot-cb93927d-d4ae-80c7-8006-d905ab36e06c" viewBox="0 0 24 24" xmlns:xlink="http://www.w3.org/1999/xlink" fill="none" version="1.1"><g id="shape-cb93927d-d4ae-80c7-8006-d905ab36e06c"><g class="frame-container-wrapper"><g class="frame-container-blur"><g class="frame-container-shadows"><g fill="none"><g class="fills" id="fills-cb93927d-d4ae-80c7-8006-d905ab36e06c"><rect rx="0" ry="0" x="0" y="0" width="24" height="24" transform="matrix(1.000000, 0.000000, 0.000000, 1.000000, 0.000000, 0.000000)" class="frame-background"/></g><g class="frame-children"><g id="shape-cb93927d-d4ae-80c7-8006-d905ab36e06d" style="display: none;"><g class="fills" id="fills-cb93927d-d4ae-80c7-8006-d905ab36e06d"><rect width="24" height="24" x="0" stroke-linejoin="round" transform="matrix(1.000000, 0.000000, 0.000000, 1.000000, 0.000000, 0.000000)" style="fill: none;" ry="0" fill="none" stroke-linecap="round" rx="0" y="0"/></g><g fill="none" stroke-linejoin="round" stroke-linecap="round" id="strokes-42ed682c-a582-803b-8006-d905bcc90a43-cb93927d-d4ae-80c7-8006-d905ab36e06d" class="strokes"><g class="stroke-shape"><rect rx="0" ry="0" x="0" y="0" transform="matrix(1.000000, 0.000000, 0.000000, 1.000000, 0.000000, 0.000000)" width="24" height="24" style="fill: none; stroke-width: 2; stroke: rgb(0, 0, 0); stroke-opacity: 1;"/></g></g></g><g id="shape-cb93927d-d4ae-80c7-8006-d905ab36e06e"><g class="fills" id="fills-cb93927d-d4ae-80c7-8006-d905ab36e06e"><path d="M9.8800048828125,9.8800048828125C9.077392578125,10.6279296875,8.7469482421875,11.7542724609375,9.0184326171875,12.817138671875C9.2899169921875,13.880126953125,10.119873046875,14.7100830078125,11.182861328125,14.9815673828125C12.2457275390625,15.2530517578125,13.3720703125,14.922607421875,14.1199951171875,14.1199951171875" fill="none" stroke-linecap="round" stroke-linejoin="round" style="fill: none;"/></g><g fill="none" stroke-linecap="round" stroke-linejoin="round" id="strokes-42ed682c-a582-803b-8006-d905bcc9c3e2-cb93927d-d4ae-80c7-8006-d905ab36e06e" class="strokes"><g class="stroke-shape"><path d="M9.8800048828125,9.8800048828125C9.077392578125,10.6279296875,8.7469482421875,11.7542724609375,9.0184326171875,12.817138671875C9.2899169921875,13.880126953125,10.119873046875,14.7100830078125,11.182861328125,14.9815673828125C12.2457275390625,15.2530517578125,13.3720703125,14.922607421875,14.1199951171875,14.1199951171875" style="fill: none; stroke-width: 2; stroke: rgb(0, 0, 0); stroke-opacity: 1;"/></g></g></g><g id="shape-cb93927d-d4ae-80c7-8006-d905ab36e06f"><g class="fills" id="fills-cb93927d-d4ae-80c7-8006-d905ab36e06f"><path d="M10.72998046875,5.08001708984375C11.1512451171875,5.02752685546875,11.575439453125,5.00079345703125,12,5C19,5,22,12,22,12C21.5528564453125,12.9571533203125,20.9921875,13.85693359375,20.3299560546875,14.6800537109375" fill="none" stroke-linecap="round" stroke-linejoin="round" style="fill: none;"/></g><g fill="none" stroke-linecap="round" stroke-linejoin="round" id="strokes-42ed682c-a582-803b-8006-d905bcca8f96-cb93927d-d4ae-80c7-8006-d905ab36e06f" class="strokes"><g class="stroke-shape"><path d="M10.72998046875,5.08001708984375C11.1512451171875,5.02752685546875,11.575439453125,5.00079345703125,12,5C19,5,22,12,22,12C21.5528564453125,12.9571533203125,20.9921875,13.85693359375,20.3299560546875,14.6800537109375" style="fill: none; stroke-width: 2; stroke: rgb(0, 0, 0); stroke-opacity: 1;"/></g></g></g><g id="shape-cb93927d-d4ae-80c7-8006-d905ab36e070"><g class="fills" id="fills-cb93927d-d4ae-80c7-8006-d905ab36e070"><path d="M6.6099853515625,6.6099853515625C4.6212158203125,7.964599609375,3.02978515625,9.8253173828125,2,12C2,12,5,19,12,19C13.9158935546875,19.005126953125,15.790771484375,18.445068359375,17.3900146484375,17.3900146484375" fill="none" stroke-linecap="round" stroke-linejoin="round" style="fill: none;"/></g><g fill="none" stroke-linecap="round" stroke-linejoin="round" id="strokes-42ed682c-a582-803b-8006-d905bccb4666-cb93927d-d4ae-80c7-8006-d905ab36e070" class="strokes"><g class="stroke-shape"><path d="M6.6099853515625,6.6099853515625C4.6212158203125,7.964599609375,3.02978515625,9.8253173828125,2,12C2,12,5,19,12,19C13.9158935546875,19.005126953125,15.790771484375,18.445068359375,17.3900146484375,17.3900146484375" style="fill: none; stroke-width: 2; stroke: rgb(0, 0, 0); stroke-opacity: 1;"/></g></g></g><g id="shape-cb93927d-d4ae-80c7-8006-d905ab36e071"><g class="fills" id="fills-cb93927d-d4ae-80c7-8006-d905ab36e071"><path d="M2,2L22,22" fill="none" stroke-linejoin="round" stroke-linecap="round" style="fill: none;"/></g><g fill="none" stroke-linejoin="round" stroke-linecap="round" id="strokes-42ed682c-a582-803b-8006-d905bccbc0f7-cb93927d-d4ae-80c7-8006-d905ab36e071" class="strokes"><g class="stroke-shape"><path d="M2,2L22,22" style="fill: none; stroke-width: 2; stroke: rgb(0, 0, 0); stroke-opacity: 1;"/></g></g></g></g></g></g></g></g></g></svg>